HIERARCHY
ROOT Hips
{
	OFFSET 53.728100 -11.228415 95.624603
	CHANNELS 6 Xposition Yposition Zposition Xrotation Yrotation Zrotation
	JOINT spine
	{
		OFFSET 0.000000 -0.458069 7.965683
		CHANNELS 3 Xrotation Yrotation Zrotation
		JOINT spine1
		{
			OFFSET 0.000000 -0.000001 10.243103
			CHANNELS 3 Xrotation Yrotation Zrotation
			JOINT spine2
			{
				OFFSET 0.000000 -0.000002 9.814751
				CHANNELS 3 Xrotation Yrotation Zrotation
				JOINT Neck
				{
					OFFSET 0.000000 -1.201384 25.198601
					CHANNELS 3 Xrotation Yrotation Zrotation
					JOINT Head
					{
						OFFSET 0.000000 -0.000002 7.613144
						CHANNELS 3 Xrotation Yrotation Zrotation
						End Site
						{
							OFFSET 0.000000 6.077327 18.428101
						}
					}
				}
				JOINT RightShoulder
				{
					OFFSET -4.132702 0.575449 10.599205
					CHANNELS 3 Xrotation Yrotation Zrotation
					JOINT RightArm
					{
						OFFSET 0.000000 -0.000002 13.901794
						CHANNELS 3 Xrotation Yrotation Zrotation
						JOINT RightArmRoll
						{
							OFFSET 0.000000 -0.000002 7.017883
							CHANNELS 3 Xrotation Yrotation Zrotation
							JOINT RightForeArm
							{
								OFFSET 0.000000 -0.000003 20.440598
								CHANNELS 3 Xrotation Yrotation Zrotation
								JOINT RightForeArmRoll
								{
									OFFSET 0.000000 -0.000001 7.875153
									CHANNELS 3 Xrotation Yrotation Zrotation
									JOINT RightHand
									{
										OFFSET 0.000000 -0.000003 15.803696
										CHANNELS 3 Xrotation Yrotation Zrotation
										End Site
										{
											OFFSET 0.000000 0.000000 0.100006
										}
									}
								}
							}
						}
					}
				}
				JOINT LeftShoulder
				{
					OFFSET 4.132702 0.575449 10.599205
					CHANNELS 3 Xrotation Yrotation Zrotation
					JOINT LeftArm
					{
						OFFSET 0.000000 -0.000002 13.901794
						CHANNELS 3 Xrotation Yrotation Zrotation
						JOINT LeftArmRoll
						{
							OFFSET 0.000000 -0.000002 7.017883
							CHANNELS 3 Xrotation Yrotation Zrotation
							JOINT LeftForeArm
							{
								OFFSET 0.000000 -0.000003 20.440598
								CHANNELS 3 Xrotation Yrotation Zrotation
								JOINT LeftForeArmRoll
								{
									OFFSET 0.000000 -0.000001 7.875153
									CHANNELS 3 Xrotation Yrotation Zrotation
									JOINT LeftHand
									{
										OFFSET 0.000000 -0.000003 15.803696
										CHANNELS 3 Xrotation Yrotation Zrotation
										End Site
										{
											OFFSET 0.000000 0.000000 0.100006
										}
									}
								}
							}
						}
					}
				}
			}
		}
	}
	JOINT RightUpLeg
	{
		OFFSET -7.060482 1.086100 -1.294701
		CHANNELS 3 Xrotation Yrotation Zrotation
		JOINT RightUpLegRoll
		{
			OFFSET 0.000000 -0.000003 18.530800
			CHANNELS 3 Xrotation Yrotation Zrotation
			JOINT RightLeg
			{
				OFFSET 0.000000 0.000004 -22.947601
				CHANNELS 3 Xrotation Yrotation Zrotation
				JOINT RightLegRoll
				{
					OFFSET 0.000000 -0.000004 23.022598
					CHANNELS 3 Xrotation Yrotation Zrotation
					JOINT RightFoot
					{
						OFFSET 0.000000 -0.000004 19.162506
						CHANNELS 3 Xrotation Yrotation Zrotation
						JOINT RightToeBase
						{
							OFFSET 0.000000 -0.000002 16.018799
							CHANNELS 3 Xrotation Yrotation Zrotation
							End Site
							{
								OFFSET 0.006790 0.894205 7.757812
							}
						}
					}
				}
			}
		}
	}
	JOINT LeftUpLeg
	{
		OFFSET 7.060482 1.086100 -1.294701
		CHANNELS 3 Xrotation Yrotation Zrotation
		JOINT LeftUpLegRoll
		{
			OFFSET 0.000000 -0.000003 18.530899
			CHANNELS 3 Xrotation Yrotation Zrotation
			JOINT LeftLeg
			{
				OFFSET 0.000000 -0.000004 22.947502
				CHANNELS 3 Xrotation Yrotation Zrotation
				JOINT LeftLegRoll
				{
					OFFSET 0.000000 -0.000004 23.235504
					CHANNELS 3 Xrotation Yrotation Zrotation
					JOINT LeftFoot
					{
						OFFSET 0.000000 -0.000003 18.949600
						CHANNELS 3 Xrotation Yrotation Zrotation
						JOINT LeftToeBase
						{
							OFFSET 0.000000 -0.000003 16.018799
							CHANNELS 3 Xrotation Yrotation Zrotation
							End Site
							{
								OFFSET -0.030430 0.894205 7.757812
							}
						}
					}
				}
			}
		}
	}
}
MOTION
Frames: 13
Frame Time: 0.041667
54.289795 -11.438417 95.654808 -2.026742 -1.881995 4.551011 -2.276780 0.558509 -0.077533 -0.550085 1.119138 -0.138332 1.095118 1.117406 -0.151727 33.455913 -0.050691 -2.197084 -3.044792 -3.386463 -1.945297 -16.367754 -14.717471 -18.315603 -135.152956 -189.652743 -78.245828 0.000001 0.000001 0.000000 33.933975 17.306724 3.058811 0.000003 0.000009 -3.004702 -5.000154 -7.999962 0.000001 -12.205396 15.479638 11.690799 -135.697472 189.700731 86.875628 0.000001 -0.000001 -0.000000 32.114563 -15.868654 -2.549311 -0.000001 -0.000013 3.000500 -5.000142 8.001334 0.000152 1.248579 -170.981109 0.691411 -179.999991 0.000004 -1.153996 171.514793 -2.026588 -0.735277 -0.000006 0.000003 0.215486 71.575458 6.874594 1.996057 25.567138 -7.355202 0.163263 0.609374 175.387264 1.588653 -0.000020 -0.000004 -1.143370 -4.590051 1.373842 0.196134 -0.000009 0.000005 -0.032162 68.992055 -6.898358 -2.112824 25.456957 7.355612 -0.000001 
54.251698 -11.495816 95.657303 -2.030562 -1.878373 4.542933 -2.276899 0.558664 -0.077375 -0.550391 1.119498 -0.138026 1.094818 1.117766 -0.151431 33.462524 -0.061511 -2.187214 -3.041585 -3.363736 -1.938341 -16.339872 -14.811538 -18.273973 -135.181151 -189.458533 -78.316411 -0.000001 -0.000001 -0.000000 33.904407 17.275691 3.048145 0.000004 0.000009 -3.004701 -5.000152 -7.999962 -0.000001 -12.178375 15.561268 11.655634 -135.752892 189.539553 87.042100 0.000000 0.000000 -0.000000 31.923679 -15.799551 -2.532806 -0.000002 -0.000013 3.000490 -5.000140 8.001333 0.000152 1.249996 -170.984114 0.689780 -179.999991 0.000004 -1.153997 171.517743 -2.025616 -0.735025 -0.000006 0.000002 0.215389 71.570622 6.874536 1.995945 25.567340 -7.355212 0.163568 0.612891 175.383262 1.585437 -0.000020 -0.000004 -1.143470 -4.591644 1.374437 0.196320 -0.000009 0.000005 -0.032190 68.992123 -6.898220 -2.114197 25.456957 7.355613 0.000000 
54.257698 -11.478819 95.656303 -2.030551 -1.877763 4.538195 -2.277730 0.559475 -0.077851 -0.552070 1.121398 -0.138983 1.093139 1.119646 -0.152412 33.463935 -0.074927 -2.174395 -3.027878 -3.334419 -1.929026 -16.317691 -14.909181 -18.241716 -135.205411 -189.267725 -78.393530 0.000000 0.000002 0.000000 33.854061 17.246257 3.036740 0.000005 0.000009 -3.004699 -5.000154 -7.999961 0.000002 -12.152273 15.645899 11.622144 -135.807930 189.380573 87.209133 -0.000000 -0.000003 -0.000001 31.729934 -15.729991 -2.516415 -0.000002 -0.000014 3.000491 -5.000142 8.001335 0.000151 1.246557 -170.983103 0.690495 -179.999991 0.000005 -1.153996 171.517825 -2.026604 -0.735169 -0.000005 0.000002 0.215265 71.567084 6.874513 1.995759 25.567435 -7.355204 0.163720 0.612570 175.383262 1.585973 -0.000020 -0.000004 -1.143570 -4.591574 1.374267 0.196504 -0.000009 0.000004 -0.032217 68.992253 -6.898651 -2.113867 25.456953 7.355613 -0.000001 
54.281296 -11.433315 95.655502 -2.027271 -1.879826 4.536221 -2.279179 0.560881 -0.078845 -0.554972 1.124677 -0.140976 1.090230 1.122907 -0.154445 33.459755 -0.092325 -2.157905 -3.002342 -3.295940 -1.917002 -16.300859 -15.009921 -18.218049 -135.226790 -189.080004 -78.474509 0.000001 0.000001 0.000000 33.787460 17.218555 3.024898 0.000003 0.000008 -3.004700 -5.000152 -7.999963 -0.000001 -12.127101 15.733829 11.590314 -135.864060 189.223738 87.379225 0.000000 -0.000002 -0.000001 31.531910 -15.659105 -2.499508 -0.000002 -0.000014 3.000490 -5.000139 8.001334 0.000152 1.238951 -170.978076 0.693342 -179.999991 0.000005 -1.153997 171.515503 -2.028576 -0.735548 -0.000006 0.000002 0.215122 71.564714 6.874466 1.995598 25.567437 -7.355214 0.163773 0.609195 175.388261 1.589828 -0.000020 -0.000004 -1.143660 -4.589761 1.373423 0.196678 -0.000009 0.000005 -0.032244 68.992349 -6.899645 -2.111946 25.456955 7.355611 0.000000 
54.278496 -11.445919 95.655800 -2.021113 -1.884210 4.536608 -2.281172 0.562805 -0.080294 -0.558956 1.129166 -0.143884 1.086250 1.127358 -0.157407 33.450971 -0.112907 -2.138358 -2.966877 -3.250038 -1.902692 -16.288652 -15.113532 -18.201906 -135.245450 -188.894414 -78.558309 -0.000001 -0.000001 -0.000000 33.706061 17.192361 3.012400 0.000005 0.000007 -3.004701 -5.000156 -7.999962 0.000001 -12.102545 15.824976 11.559756 -135.921352 189.068693 87.551018 -0.000001 0.000001 -0.000001 31.329941 -15.586915 -2.482209 -0.000002 -0.000012 3.000489 -5.000142 8.001333 0.000152 1.227702 -170.969033 0.698028 -179.999991 0.000006 -1.153997 171.511050 -2.032500 -0.735296 -0.000005 0.000003 0.214958 71.563314 6.874430 1.995280 25.567435 -7.355204 0.163730 0.603123 175.396266 1.596551 -0.000020 -0.000004 -1.143760 -4.586458 1.372005 0.196844 -0.000009 0.000005 -0.032271 68.992499 -6.901131 -2.108813 25.456952 7.355612 -0.000000 
54.282997 -11.426914 95.657005 -2.012477 -1.890536 4.538991 -2.283655 0.565168 -0.082139 -0.563879 1.134675 -0.147580 1.081331 1.132828 -0.161170 33.438608 -0.135876 -2.116345 -2.923369 -3.198450 -1.886530 -16.280342 -15.219862 -18.191966 -135.261870 -188.710081 -78.644936 0.000000 0.000001 0.000001 33.611214 17.167394 2.999526 0.000005 0.000008 -3.004699 -5.000154 -7.999961 0.000003 -12.078392 15.919158 11.530059 -135.980064 188.914604 87.724730 0.000001 -0.000002 -0.000000 31.124496 -15.513586 -2.464420 -0.000001 -0.000014 3.000490 -5.000139 8.001336 0.000152 1.213326 -170.957996 0.704215 -179.999991 0.000004 -1.153997 171.504903 -2.035441 -0.734948 -0.000006 0.000002 0.214775 71.562726 6.874315 1.995196 25.567440 -7.355205 0.163610 0.594719 175.407249 1.605698 -0.000020 -0.000004 -1.143850 -4.581892 1.370079 0.197001 -0.000009 0.000005 -0.032298 68.992677 -6.903007 -2.104451 25.456957 7.355613 0.000000 
54.283997 -11.425418 95.656799 -2.001750 -1.898444 4.542968 -2.286524 0.567893 -0.084319 -0.569600 1.141033 -0.151944 1.075612 1.139140 -0.165609 33.423449 -0.160433 -2.092449 -2.873737 -3.142910 -1.868939 -16.275207 -15.328874 -18.187131 -135.276404 -188.526116 -78.735415 0.000000 -0.000001 -0.000001 33.504352 17.143418 2.985982 0.000006 0.000008 -3.004702 -5.000155 -7.999961 0.000001 -12.054424 16.016186 11.500850 -136.040129 188.761130 87.901038 -0.000000 -0.000001 -0.000000 30.915994 -15.439108 -2.446252 -0.000002 -0.000014 3.000489 -5.000142 8.001334 0.000151 1.196353 -170.943939 0.711634 -179.999991 0.000005 -1.153997 171.497403 -2.040345 -0.735953 -0.000006 0.000003 0.214572 71.562815 6.874250 1.994980 25.567235 -7.355208 0.163381 0.584347 175.420227 1.616822 -0.000020 -0.000004 -1.143950 -4.576327 1.367768 0.197157 -0.000009 0.000004 -0.032326 68.992950 -6.905205 -2.099243 25.456953 7.355613 -0.000001 
54.251698 -11.463920 95.656998 -1.989321 -1.907552 4.548175 -2.289745 0.570902 -0.086774 -0.575979 1.148052 -0.156850 1.069234 1.146091 -0.170599 33.406500 -0.185780 -2.067281 -2.819873 -3.085167 -1.850339 -16.272301 -15.440343 -18.186186 -135.289600 -188.341606 -78.830683 0.000001 -0.000000 -0.000000 33.386829 17.120151 2.972039 0.000004 0.000009 -3.004701 -5.000155 -7.999961 -0.000002 -12.030324 16.115992 11.471701 -136.101587 188.607519 88.079265 -0.000001 -0.000002 -0.000001 30.704982 -15.363479 -2.427884 -0.000002 -0.000015 3.000480 -5.000142 8.001337 0.000151 1.177320 -170.927888 0.719971 -179.999991 0.000005 -1.153997 171.488893 -2.045243 -0.735001 -0.000007 0.000003 0.214349 71.563321 6.874176 1.994738 25.567133 -7.355206 0.163102 0.572364 175.435226 1.629477 -0.000020 -0.000005 -1.144050 -4.569979 1.365127 0.197307 -0.000009 0.000004 -0.032352 68.993202 -6.907685 -2.093189 25.456955 7.355613 -0.000001 
54.259495 -11.449916 95.656303 -1.975608 -1.917502 4.554209 -2.293216 0.574117 -0.089443 -0.582873 1.155550 -0.162176 1.062335 1.153522 -0.176013 33.388663 -0.211114 -2.041427 -2.763667 -3.026972 -1.831131 -16.271092 -15.554007 -18.188013 -135.301881 -188.155688 -78.927754 -0.000002 -0.000001 -0.000000 33.259852 17.097246 2.957786 0.000005 0.000008 -3.004701 -5.000158 -7.999961 0.000001 -12.005771 16.218387 11.442191 -136.164684 188.453252 88.259397 -0.000001 0.000001 -0.000001 30.491696 -15.286817 -2.409234 -0.000001 -0.000013 3.000479 -5.000143 8.001336 0.000151 1.156739 -170.909829 0.728932 -179.999991 0.000005 -1.154993 171.479767 -2.051126 -0.735217 -0.000006 0.000003 0.214106 71.564147 6.874096 1.994573 25.566937 -7.355209 0.162743 0.559130 175.451222 1.643226 -0.000020 -0.000004 -1.144140 -4.563102 1.362280 0.197456 -0.000009 0.000005 -0.032379 68.993496 -6.910309 -2.086757 25.456959 7.355614 -0.000002 
54.249096 -11.477215 95.659302 -1.960992 -1.927914 4.560702 -2.296876 0.577461 -0.092265 -0.590144 1.163338 -0.167797 1.055067 1.161243 -0.181726 33.370925 -0.235632 -2.015461 -2.707027 -2.970058 -1.811696 -16.270747 -15.669844 -18.191275 -135.313574 -187.967448 -79.029667 -0.000001 0.000002 0.000001 33.124901 17.074578 2.943159 0.000005 0.000009 -3.004699 -5.000157 -7.999960 0.000002 -11.980650 16.323189 11.411950 -136.229503 188.297756 88.440909 -0.000002 0.000003 -0.000000 30.276750 -15.209021 -2.390621 -0.000001 -0.000014 3.000481 -5.000142 8.001338 0.000152 1.135147 -170.891757 0.738188 -179.999991 0.000005 -1.154993 171.470383 -2.057020 -0.735447 -0.000006 0.000003 0.213844 71.565090 6.874044 1.994306 25.566737 -7.355210 0.162342 0.545008 175.468202 1.657618 -0.000020 -0.000004 -1.144240 -4.555935 1.359304 0.197605 -0.000009 0.000005 -0.032406 68.993728 -6.913032 -2.080049 25.456952 7.355613 -0.000001 
54.245697 -11.474116 95.659096 -1.945875 -1.938435 4.567263 -2.300659 0.580855 -0.095181 -0.597647 1.171236 -0.173591 1.047569 1.169075 -0.187613 33.354187 -0.258527 -1.989990 -2.651846 -2.916199 -1.792420 -16.270527 -15.787608 -18.194891 -135.325076 -187.776093 -79.134531 -0.000001 0.000001 -0.000000 32.983390 17.051753 2.928183 0.000005 0.000008 -3.004700 -5.000156 -7.999962 -0.000000 -11.954543 16.430418 11.380554 -136.296015 188.140416 88.623856 -0.000001 0.000002 -0.000000 30.060397 -15.130298 -2.371817 -0.000000 -0.000014 3.000481 -5.000142 8.001334 0.000152 1.113051 -170.873697 0.747445 -179.999991 0.000004 -1.154994 171.461066 -2.062900 -0.735660 -0.000005 0.000003 0.213562 71.566135 6.873961 1.994127 25.566530 -7.355205 0.161898 0.530358 175.485195 1.672212 -0.000020 -0.000004 -1.144340 -4.548706 1.356277 0.197755 -0.000009 0.000004 -0.032433 68.993967 -6.915792 -2.073250 25.456957 7.355615 -0.000002 
54.242897 -11.466917 95.661491 -1.930634 -1.948677 4.573515 -2.304492 0.584223 -0.098130 -0.605244 1.179074 -0.179436 1.039969 1.176847 -0.193549 33.339451 -0.278990 -1.965594 -2.600019 -2.867130 -1.773652 -16.269702 -15.907272 -18.197733 -135.336961 -187.580627 -79.242229 -0.000000 0.000002 0.000000 32.836572 17.028626 2.912916 0.000004 0.000008 -3.004701 -5.000154 -7.999959 0.000001 -11.927219 16.539706 11.347555 -136.364481 187.980740 88.808155 0.000000 0.000001 -0.000000 29.843258 -15.050566 -2.353146 0.000000 -0.000014 3.000480 -5.000143 8.001334 0.000153 1.091006 -170.855638 0.756420 -179.999991 0.000005 -1.154993 171.452242 -2.068782 -0.735872 -0.000006 0.000002 0.213260 71.566886 6.873975 1.993785 25.566228 -7.355206 0.161390 0.515539 175.502189 1.686580 -0.000020 -0.000004 -1.144430 -4.541668 1.353299 0.197906 -0.000009 0.000005 -0.032460 68.994275 -6.918451 -2.066524 25.456955 7.355613 0.000000 
54.236397 -11.474718 95.660492 -1.915691 -1.958298 4.579063 -2.308284 0.587486 -0.101052 -0.612792 1.186652 -0.185208 1.032420 1.184348 -0.199411 33.327508 -0.296210 -1.942834 -2.553434 -2.824637 -1.755745 -16.267407 -16.028507 -18.198447 -135.349651 -187.380270 -79.354948 -0.000003 0.000003 -0.000000 32.685867 17.004739 2.897443 0.000005 0.000008 -3.004699 -5.000156 -7.999961 0.000000 -11.898465 16.651057 11.312602 -136.434955 187.818031 88.993513 0.000000 -0.000001 -0.000001 29.625560 -14.969869 -2.334588 -0.000001 -0.000014 3.000481 -5.000142 8.001333 0.000153 1.069525 -170.838577 0.764804 -179.999991 0.000005 -1.154995 171.444210 -2.073684 -0.735907 -0.000006 0.000002 0.212940 71.567405 6.873934 1.993646 25.566028 -7.355208 0.160880 0.500916 175.518158 1.700268 -0.000020 -0.000004 -1.144530 -4.535053 1.350461 0.198062 -0.000009 0.000005 -0.032487 68.994452 -6.920998 -2.060287 25.456953 7.355613 -0.000001 
